<mxfile host="app.diagrams.net" modified="2024-07-04T01:39:32.941Z" agent="Mozilla/5.0 (Macintosh; Intel Mac OS X 10_15_7) AppleWebKit/605.1.15 (KHTML, like Gecko) Version/17.5 Safari/605.1.15" etag="3tWGSheZdYy3fC2xLqod" version="24.6.4" type="device">
  <diagram name="Page-1" id="k5VUXGam565ALWSxO8Zz">
    <mxGraphModel dx="1306" dy="842" grid="1" gridSize="10" guides="1" tooltips="1" connect="1" arrows="1" fold="1" page="1" pageScale="1" pageWidth="827" pageHeight="1169" math="0" shadow="0">
      <root>
        <mxCell id="0" />
        <mxCell id="1" parent="0" />
        <mxCell id="rn9trhQTY5Y73Hb_5tP1-6" style="edgeStyle=orthogonalEdgeStyle;rounded=0;orthogonalLoop=1;jettySize=auto;html=1;entryX=0.5;entryY=0;entryDx=0;entryDy=0;" parent="1" source="rn9trhQTY5Y73Hb_5tP1-1" target="rn9trhQTY5Y73Hb_5tP1-3" edge="1">
          <mxGeometry relative="1" as="geometry" />
        </mxCell>
        <mxCell id="XJ8j79lpO4KDi16GodSo-12" style="edgeStyle=orthogonalEdgeStyle;rounded=0;orthogonalLoop=1;jettySize=auto;html=1;" edge="1" parent="1" source="rn9trhQTY5Y73Hb_5tP1-1" target="rn9trhQTY5Y73Hb_5tP1-13">
          <mxGeometry relative="1" as="geometry" />
        </mxCell>
        <mxCell id="rn9trhQTY5Y73Hb_5tP1-1" value="Server" style="rounded=0;whiteSpace=wrap;html=1;" parent="1" vertex="1">
          <mxGeometry x="380" y="270" width="120" height="60" as="geometry" />
        </mxCell>
        <mxCell id="rn9trhQTY5Y73Hb_5tP1-2" value="Domain" style="rounded=0;whiteSpace=wrap;html=1;" parent="1" vertex="1">
          <mxGeometry x="510" y="500" width="120" height="60" as="geometry" />
        </mxCell>
        <mxCell id="XJ8j79lpO4KDi16GodSo-2" style="edgeStyle=orthogonalEdgeStyle;rounded=0;orthogonalLoop=1;jettySize=auto;html=1;entryX=0;entryY=0.5;entryDx=0;entryDy=0;" edge="1" parent="1" source="rn9trhQTY5Y73Hb_5tP1-3" target="rn9trhQTY5Y73Hb_5tP1-4">
          <mxGeometry relative="1" as="geometry" />
        </mxCell>
        <mxCell id="XJ8j79lpO4KDi16GodSo-3" value="Tools&lt;div&gt;(Function calling)&lt;/div&gt;" style="edgeLabel;html=1;align=center;verticalAlign=middle;resizable=0;points=[];" vertex="1" connectable="0" parent="XJ8j79lpO4KDi16GodSo-2">
          <mxGeometry x="0.2444" y="-2" relative="1" as="geometry">
            <mxPoint x="-15" y="-2" as="offset" />
          </mxGeometry>
        </mxCell>
        <mxCell id="XJ8j79lpO4KDi16GodSo-9" style="edgeStyle=orthogonalEdgeStyle;rounded=0;orthogonalLoop=1;jettySize=auto;html=1;entryX=0;entryY=0.5;entryDx=0;entryDy=0;exitX=0.5;exitY=1;exitDx=0;exitDy=0;" edge="1" parent="1" source="rn9trhQTY5Y73Hb_5tP1-3" target="rn9trhQTY5Y73Hb_5tP1-2">
          <mxGeometry relative="1" as="geometry" />
        </mxCell>
        <mxCell id="XJ8j79lpO4KDi16GodSo-11" style="edgeStyle=orthogonalEdgeStyle;rounded=0;orthogonalLoop=1;jettySize=auto;html=1;entryX=1;entryY=0.5;entryDx=0;entryDy=0;" edge="1" parent="1" source="rn9trhQTY5Y73Hb_5tP1-3" target="rn9trhQTY5Y73Hb_5tP1-13">
          <mxGeometry relative="1" as="geometry" />
        </mxCell>
        <mxCell id="rn9trhQTY5Y73Hb_5tP1-3" value="Assistant" style="rounded=0;whiteSpace=wrap;html=1;" parent="1" vertex="1">
          <mxGeometry x="380" y="400" width="120" height="60" as="geometry" />
        </mxCell>
        <mxCell id="XJ8j79lpO4KDi16GodSo-10" style="edgeStyle=orthogonalEdgeStyle;rounded=0;orthogonalLoop=1;jettySize=auto;html=1;entryX=1;entryY=0.5;entryDx=0;entryDy=0;exitX=0.5;exitY=1;exitDx=0;exitDy=0;" edge="1" parent="1" source="rn9trhQTY5Y73Hb_5tP1-4" target="rn9trhQTY5Y73Hb_5tP1-2">
          <mxGeometry relative="1" as="geometry" />
        </mxCell>
        <mxCell id="rn9trhQTY5Y73Hb_5tP1-4" value="Discogs" style="rounded=0;whiteSpace=wrap;html=1;" parent="1" vertex="1">
          <mxGeometry x="640" y="400" width="120" height="60" as="geometry" />
        </mxCell>
        <mxCell id="rn9trhQTY5Y73Hb_5tP1-9" style="edgeStyle=orthogonalEdgeStyle;rounded=0;orthogonalLoop=1;jettySize=auto;html=1;entryX=0.5;entryY=0;entryDx=0;entryDy=0;" parent="1" source="rn9trhQTY5Y73Hb_5tP1-8" target="rn9trhQTY5Y73Hb_5tP1-1" edge="1">
          <mxGeometry relative="1" as="geometry" />
        </mxCell>
        <mxCell id="rn9trhQTY5Y73Hb_5tP1-8" value="UI" style="rounded=0;whiteSpace=wrap;html=1;" parent="1" vertex="1">
          <mxGeometry x="380" y="150" width="120" height="60" as="geometry" />
        </mxCell>
        <mxCell id="rn9trhQTY5Y73Hb_5tP1-13" value="LangChain4j" style="rounded=0;whiteSpace=wrap;html=1;fillColor=#f8cecc;strokeColor=#b85450;" parent="1" vertex="1">
          <mxGeometry x="210" y="400" width="120" height="60" as="geometry" />
        </mxCell>
      </root>
    </mxGraphModel>
  </diagram>
</mxfile>
